{
	"asset":{
		"generator":"Khronos glTF Blender I/O v3.5.30",
		"version":"2.0"
	},
	"scene":0,
	"scenes":[
		{
			"name":"Scene",
			"nodes":[
				0
			]
		}
	],
	"nodes":[
		{
			"mesh":0,
			"name":"Icosphere"
		}
	],
	"materials":[
		{
			"doubleSided":true,
			"emissiveFactor":[
				0.001054907450452447,
				0.2529434263706207,
				0.010271311737596989
			],
			"name":"mat1",
			"pbrMetallicRoughness":{
				"baseColorFactor":[
					0.1901971697807312,
					0.8549792766571045,
					0.36548417806625366,
					1
				],
				"metallicFactor":0,
				"roughnessFactor":0.5
			}
		},
		{
			"doubleSided":true,
			"name":"mat2",
			"pbrMetallicRoughness":{
				"baseColorFactor":[
					0,
					0.12823939323425293,
					0.03508520871400833,
					1
				],
				"metallicFactor":0,
				"roughnessFactor":0.5
			}
		}
	],
	"meshes":[
		{
			"name":"Icosphere",
			"primitives":[
				{
					"attributes":{
						"POSITION":0,
						"TEXCOORD_0":1,
						"NORMAL":2
					},
					"indices":3,
					"material":0
				},
				{
					"attributes":{
						"POSITION":4,
						"TEXCOORD_0":5,
						"NORMAL":6
					},
					"indices":7,
					"material":1
				}
			]
		}
	],
	"accessors":[
		{
			"bufferView":0,
			"componentType":5126,
			"count":1440,
			"max":[
				1.0638912916183472,
				1.0924633741378784,
				1.085541844367981
			],
			"min":[
				-1.0638912916183472,
				-1.0924633741378784,
				-1.08554208278656
			],
			"type":"VEC3"
		},
		{
			"bufferView":1,
			"componentType":5126,
			"count":1440,
			"type":"VEC2"
		},
		{
			"bufferView":2,
			"componentType":5126,
			"count":1440,
			"type":"VEC3"
		},
		{
			"bufferView":3,
			"componentType":5123,
			"count":2880,
			"type":"SCALAR"
		},
		{
			"bufferView":4,
			"componentType":5126,
			"count":480,
			"max":[
				1.0711369514465332,
				1.1262584924697876,
				1.126258373260498
			],
			"min":[
				-1.0711369514465332,
				-1.1262584924697876,
				-1.1262584924697876
			],
			"type":"VEC3"
		},
		{
			"bufferView":5,
			"componentType":5126,
			"count":480,
			"type":"VEC2"
		},
		{
			"bufferView":6,
			"componentType":5126,
			"count":480,
			"type":"VEC3"
		},
		{
			"bufferView":7,
			"componentType":5123,
			"count":1440,
			"type":"SCALAR"
		}
	],
	"bufferViews":[
		{
			"buffer":0,
			"byteLength":17280,
			"byteOffset":0,
			"target":34962
		},
		{
			"buffer":0,
			"byteLength":11520,
			"byteOffset":17280,
			"target":34962
		},
		{
			"buffer":0,
			"byteLength":17280,
			"byteOffset":28800,
			"target":34962
		},
		{
			"buffer":0,
			"byteLength":5760,
			"byteOffset":46080,
			"target":34963
		},
		{
			"buffer":0,
			"byteLength":5760,
			"byteOffset":51840,
			"target":34962
		},
		{
			"buffer":0,
			"byteLength":3840,
			"byteOffset":57600,
			"target":34962
		},
		{
			"buffer":0,
			"byteLength":5760,
			"byteOffset":61440,
			"target":34962
		},
		{
			"buffer":0,
			"byteLength":2880,
			"byteOffset":67200,
			"target":34963
		}
	],
	"buffers":[
		{
			"byteLength":70080,
			"uri":"data:application/octet-stream;base64,"
		}
	]
}
