<svg id="Layer_1" data-name="Layer 1" xmlns="http://www.w3.org/2000/svg" viewBox="0 0 1080 1080"><defs><style>.cls-1{fill:#fff;}</style></defs><path class="cls-1" d="M440.94,535.42l163,250.71c13,20-1.36,46.48-25.23,46.48h-116a30.09,30.09,0,0,1-25.62-14.32L287.39,575.05Z"/><path class="cls-1" d="M564.76,659l56.43,83.16a30.08,30.08,0,0,0,51.34-2.56L777.75,545.33l-168.41-9.91-46.6,93.21A30,30,0,0,0,564.76,659Z"/><path class="cls-1" d="M964.43,589,580.19,262.17a62,62,0,0,0-80.38,0L115.57,589c-24.21,20.59-3.32,59.65,27.25,51L540,526.83,937.18,640C967.75,648.67,988.64,609.61,964.43,589Z"/></svg>